<svg xmlns="http://www.w3.org/2000/svg" viewBox="0 0 948 648" width="948" height="648" role="img" aria-labelledby="eu-emblem-title">
  <title id="eu-emblem-title">Flagge der Europäischen Union</title>
  <!-- Weisser Rand (1/25 der Hoehe) - vorgeschrieben auf farbigem/dunklem Untergrund. -->
  <rect width="948" height="648" fill="#FFFFFF" />
  <rect x="24" y="24" width="900" height="600" fill="#003399" />
  <g fill="#FFCC00">
    <polygon points="474,90.667 466.516,113.699 442.298,113.699 461.891,127.934 454.407,150.967 474,136.732 493.593,150.967 486.109,127.934 505.702,113.699 481.484,113.699" />
    <polygon points="574,117.462 566.516,140.494 542.298,140.494 561.891,154.729 554.407,177.762 574,163.527 593.593,177.762 586.109,154.729 605.702,140.494 581.484,140.494" />
    <polygon points="647.205,190.667 639.721,213.699 615.503,213.699 635.096,227.934 627.612,250.967 647.205,236.732 666.798,250.967 659.314,227.934 678.907,213.699 654.689,213.699" />
    <polygon points="674,290.667 666.516,313.699 642.298,313.699 661.891,327.934 654.407,350.967 674,336.732 693.593,350.967 686.109,327.934 705.702,313.699 681.484,313.699" />
    <polygon points="647.205,390.667 639.721,413.699 615.503,413.699 635.096,427.934 627.612,450.967 647.205,436.732 666.798,450.967 659.314,427.934 678.907,413.699 654.689,413.699" />
    <polygon points="574,463.872 566.516,486.905 542.298,486.905 561.891,501.14 554.407,524.172 574,509.937 593.593,524.172 586.109,501.14 605.702,486.905 581.484,486.905" />
    <polygon points="474,490.667 466.516,513.699 442.298,513.699 461.891,527.934 454.407,550.967 474,536.732 493.593,550.967 486.109,527.934 505.702,513.699 481.484,513.699" />
    <polygon points="374,463.872 366.516,486.905 342.298,486.905 361.891,501.14 354.407,524.172 374,509.937 393.593,524.172 386.109,501.14 405.702,486.905 381.484,486.905" />
    <polygon points="300.795,390.667 293.311,413.699 269.093,413.699 288.686,427.934 281.202,450.967 300.795,436.732 320.388,450.967 312.904,427.934 332.497,413.699 308.279,413.699" />
    <polygon points="274,290.667 266.516,313.699 242.298,313.699 261.891,327.934 254.407,350.967 274,336.732 293.593,350.967 286.109,327.934 305.702,313.699 281.484,313.699" />
    <polygon points="300.795,190.667 293.311,213.699 269.093,213.699 288.686,227.934 281.202,250.967 300.795,236.732 320.388,250.967 312.904,227.934 332.497,213.699 308.279,213.699" />
    <polygon points="374,117.462 366.516,140.494 342.298,140.494 361.891,154.729 354.407,177.762 374,163.527 393.593,177.762 386.109,154.729 405.702,140.494 381.484,140.494" />
  </g>
</svg>
